{"accessors":[{"name":"apple_tree_01_Cube.001-Mesh_positions","componentType":5126,"count":1992,"min":[-51.54264450073242,0.07541300356388092,-79.53717803955078],"max":[53.38724136352539,199.50392150878906,88.94190979003906],"type":"VEC3","bufferView":0,"byteOffset":0},{"name":"apple_tree_01_Cube.001-Mesh_normals","componentType":5126,"count":1992,"min":[-0.9994000196456909,-1,-0.9958999752998352],"max":[0.9998000264167786,0.9993000030517578,0.9878000020980835],"type":"VEC3","bufferView":0,"byteOffset":23904},{"name":"apple_tree_01_Cube.001-Mesh_0_indices","componentType":5123,"count":1140,"min":[0],"max":[887],"type":"SCALAR","bufferView":1,"byteOffset":0},{"name":"apple_tree_01_Cube.001-Mesh_1_indices","componentType":5123,"count":792,"min":[888],"max":[1415],"type":"SCALAR","bufferView":1,"byteOffset":2280},{"name":"apple_tree_01_Cube.001-Mesh_2_indices","componentType":5123,"count":864,"min":[1416],"max":[1991],"type":"SCALAR","bufferView":1,"byteOffset":3864}],"asset":{"generator":"obj2gltf","version":"2.0"},"buffers":[{"name":"apple_tree_02","byteLength":53400,"uri":"data:application/octet-stream;base64,"}],"bufferViews":[{"name":"bufferView_0","buffer":0,"byteLength":47808,"byteOffset":0,"byteStride":12,"target":34962},{"name":"bufferView_1","buffer":0,"byteLength":5592,"byteOffset":47808,"target":34963}],"materials":[{"name":"8BC34A","pbrMetallicRoughness":{"baseColorFactor":[0.545098,0.764706,0.290196,1],"metallicFactor":0,"roughnessFactor":0.903921569},"emissiveFactor":[0,0,0],"alphaMode":"OPAQUE","doubleSided":false},{"name":"795548","pbrMetallicRoughness":{"baseColorFactor":[0.47451,0.333333,0.282353,1],"metallicFactor":0,"roughnessFactor":0.903921569},"emissiveFactor":[0,0,0],"alphaMode":"OPAQUE","doubleSided":false},{"name":"F44336","pbrMetallicRoughness":{"baseColorFactor":[0.956863,0.262745,0.211765,1],"metallicFactor":0,"roughnessFactor":0.903921569},"emissiveFactor":[0,0,0],"alphaMode":"OPAQUE","doubleSided":false}],"meshes":[{"name":"apple_tree_01_Cube.001-Mesh","primitives":[{"attributes":{"POSITION":0,"NORMAL":1},"indices":2,"material":0,"mode":4},{"attributes":{"POSITION":0,"NORMAL":1},"indices":3,"material":1,"mode":4},{"attributes":{"POSITION":0,"NORMAL":1},"indices":4,"material":2,"mode":4}]}],"nodes":[{"name":"apple_tree_01_Cube.001","mesh":0}],"scene":0,"scenes":[{"nodes":[0]}]}
