{"accessors":[{"name":"apple_tree-Mesh_positions","componentType":5126,"count":1234,"min":[-0.8068370223045349,-1.0964659452438354,-0.7599329948425293],"max":[0.7792680263519287,0.7176200151443481,0.7355650067329407],"type":"VEC3","bufferView":0,"byteOffset":0},{"name":"apple_tree-Mesh_normals","componentType":5126,"count":1234,"min":[-0.9911999702453613,-1,-0.9945999979972839],"max":[0.9975000023841858,0.9839000105857849,0.9832000136375427],"type":"VEC3","bufferView":0,"byteOffset":14808},{"name":"apple_tree-Mesh_texcoords","componentType":5126,"count":1234,"min":[0.019099999219179153,0.019099999219179153],"max":[0.98089998960495,0.98089998960495],"type":"VEC2","bufferView":1,"byteOffset":0},{"name":"apple_tree-Mesh_0_indices","componentType":5123,"count":1242,"min":[0],"max":[1233],"type":"SCALAR","bufferView":2,"byteOffset":0}],"asset":{"generator":"obj2gltf","version":"2.0"},"buffers":[{"name":"PUSHILIN_apple_tree","byteLength":259788,"uri":"data:application/octet-stream;base64,"}],"bufferViews":[{"name":"bufferView_0","buffer":0,"byteLength":29616,"byteOffset":0,"byteStride":12,"target":34962},{"name":"bufferView_1","buffer":0,"byteLength":9872,"byteOffset":29616,"byteStride":8,"target":34962},{"name":"bufferView_2","buffer":0,"byteLength":2484,"byteOffset":39488,"target":34963},{"buffer":0,"byteOffset":41972,"byteLength":217813}],"images":[{"name":"PUSHILIN_apple_tree","mimeType":"image/png","bufferView":3}],"materials":[{"name":"None","pbrMetallicRoughness":{"baseColorTexture":{"index":0},"baseColorFactor":[1,1,1,1],"metallicFactor":0,"roughnessFactor":1},"emissiveFactor":[0,0,0],"alphaMode":"OPAQUE","doubleSided":false}],"meshes":[{"name":"apple_tree-Mesh","primitives":[{"attributes":{"POSITION":0,"NORMAL":1,"TEXCOORD_0":2},"indices":3,"material":0,"mode":4}]}],"nodes":[{"name":"apple_tree","mesh":0}],"samplers":[{"magFilter":9729,"minFilter":9986,"wrapS":10497,"wrapT":10497}],"scene":0,"scenes":[{"nodes":[0]}],"textures":[{"name":"PUSHILIN_apple_tree","sampler":0,"source":0}]}
