{"accessors":[{"name":"BighornSheep_mesh_1_positions","componentType":5126,"count":1888,"min":[-1.228384017944336,0,-3.7642529010772705],"max":[1.228384017944336,6.209261894226074,3.7642529010772705],"type":"VEC3","bufferView":0,"byteOffset":0},{"name":"BighornSheep_mesh_1_normals","componentType":5126,"count":1888,"min":[-0.9999679923057556,-1,-0.9653840065002441],"max":[0.9999679923057556,0.9947180151939392,0.9177290201187134],"type":"VEC3","bufferView":0,"byteOffset":22656},{"name":"BighornSheep_mesh_1_texcoords","componentType":5126,"count":1888,"min":[0.010181999765336514,0.0311450008302927],"max":[0.9853630065917969,0.8988839983940125],"type":"VEC2","bufferView":1,"byteOffset":0},{"name":"BighornSheep_mesh_1_0_indices","componentType":5123,"count":2808,"min":[0],"max":[1887],"type":"SCALAR","bufferView":2,"byteOffset":0}],"asset":{"generator":"obj2gltf","version":"2.0"},"buffers":[{"name":"BighornSheep","byteLength":1087896,"uri":"data:application/octet-stream;base64,"}],"bufferViews":[{"name":"bufferView_0","buffer":0,"byteLength":45312,"byteOffset":0,"byteStride":12,"target":34962},{"name":"bufferView_1","buffer":0,"byteLength":15104,"byteOffset":45312,"byteStride":8,"target":34962},{"name":"bufferView_2","buffer":0,"byteLength":5616,"byteOffset":60416,"target":34963},{"buffer":0,"byteOffset":66032,"byteLength":1021863}],"images":[{"name":"BighornSheep_BaseColor","mimeType":"image/png","bufferView":3}],"materials":[{"name":"BighornSheep_mat","pbrMetallicRoughness":{"baseColorTexture":{"index":0},"baseColorFactor":[1,1,1,1],"metallicFactor":0,"roughnessFactor":1},"emissiveFactor":[0,0,0],"alphaMode":"OPAQUE","doubleSided":false}],"meshes":[{"name":"BighornSheep_mesh_1","primitives":[{"attributes":{"POSITION":0,"NORMAL":1,"TEXCOORD_0":2},"indices":3,"material":0,"mode":4}]}],"nodes":[{"name":"BighornSheep_mesh","mesh":0}],"samplers":[{"magFilter":9729,"minFilter":9986,"wrapS":10497,"wrapT":10497}],"scene":0,"scenes":[{"nodes":[0]}],"textures":[{"name":"BighornSheep_BaseColor","sampler":0,"source":0}]}
