{"accessors":[{"name":"Cow_mesh_1_positions","componentType":5126,"count":2494,"min":[-1.6814639568328857,0,-6.825132846832275],"max":[1.6814639568328857,7.420104026794434,6.825132846832275],"type":"VEC3","bufferView":0,"byteOffset":0},{"name":"Cow_mesh_1_normals","componentType":5126,"count":2494,"min":[-1,-1,-0.9997590184211731],"max":[1,0.9959959983825684,0.9748719930648804],"type":"VEC3","bufferView":0,"byteOffset":29928},{"name":"Cow_mesh_1_texcoords","componentType":5126,"count":2494,"min":[0.01584400050342083,0.036295998841524124],"max":[0.987841010093689,0.934673011302948],"type":"VEC2","bufferView":1,"byteOffset":0},{"name":"Cow_mesh_1_0_indices","componentType":5123,"count":3726,"min":[0],"max":[2493],"type":"SCALAR","bufferView":2,"byteOffset":0}],"asset":{"generator":"obj2gltf","version":"2.0"},"buffers":[{"name":"Cow","byteLength":992644,"uri":"data:application/octet-stream;base64,"}],"bufferViews":[{"name":"bufferView_0","buffer":0,"byteLength":59856,"byteOffset":0,"byteStride":12,"target":34962},{"name":"bufferView_1","buffer":0,"byteLength":19952,"byteOffset":59856,"byteStride":8,"target":34962},{"name":"bufferView_2","buffer":0,"byteLength":7452,"byteOffset":79808,"target":34963},{"buffer":0,"byteOffset":87260,"byteLength":905384}],"images":[{"name":"Cow_BaseColor","mimeType":"image/png","bufferView":3}],"materials":[{"name":"Cow_mat","pbrMetallicRoughness":{"baseColorTexture":{"index":0},"baseColorFactor":[1,1,1,1],"metallicFactor":0,"roughnessFactor":1},"emissiveFactor":[0,0,0],"alphaMode":"OPAQUE","doubleSided":false}],"meshes":[{"name":"Cow_mesh_1","primitives":[{"attributes":{"POSITION":0,"NORMAL":1,"TEXCOORD_0":2},"indices":3,"material":0,"mode":4}]}],"nodes":[{"name":"Cow_mesh","mesh":0}],"samplers":[{"magFilter":9729,"minFilter":9986,"wrapS":10497,"wrapT":10497}],"scene":0,"scenes":[{"nodes":[0]}],"textures":[{"name":"Cow_BaseColor","sampler":0,"source":0}]}
