{"accessors":[{"name":"Geo_Goat_1_positions","componentType":5126,"count":1212,"min":[-25.91800308227539,-79.45770263671875,-101.26290893554688],"max":[25.91800308227539,79.45770263671875,101.26290893554688],"type":"VEC3","bufferView":0,"byteOffset":0},{"name":"Geo_Goat_1_normals","componentType":5126,"count":1212,"min":[-0.9962289929389954,-1,-0.9998350143432617],"max":[0.9962289929389954,0.95899897813797,0.9999989867210388],"type":"VEC3","bufferView":0,"byteOffset":14544},{"name":"Geo_Goat_1_texcoords","componentType":5126,"count":1212,"min":[0.032092999666929245,0.02930399961769581],"max":[0.9602749943733215,0.910772979259491],"type":"VEC2","bufferView":1,"byteOffset":0},{"name":"Geo_Goat_1_0_indices","componentType":5123,"count":1866,"min":[0],"max":[1211],"type":"SCALAR","bufferView":2,"byteOffset":0}],"asset":{"generator":"obj2gltf","version":"2.0"},"buffers":[{"name":"Mesh_Goat","byteLength":42640,"uri":"data:application/octet-stream;base64,"}],"bufferViews":[{"name":"bufferView_0","buffer":0,"byteLength":29088,"byteOffset":0,"byteStride":12,"target":34962},{"name":"bufferView_1","buffer":0,"byteLength":9696,"byteOffset":29088,"byteStride":8,"target":34962},{"name":"bufferView_2","buffer":0,"byteLength":3732,"byteOffset":38784,"target":34963},{"buffer":0,"byteOffset":42516,"byteLength":124}],"images":[{"name":"Tex_Goat","mimeType":"image/png","bufferView":3}],"materials":[{"name":"lambert5SG","pbrMetallicRoughness":{"baseColorTexture":{"index":0},"baseColorFactor":[1,1,1,1],"metallicFactor":0,"roughnessFactor":1},"emissiveFactor":[0,0,0],"alphaMode":"OPAQUE","doubleSided":false}],"meshes":[{"name":"Geo_Goat_1","primitives":[{"attributes":{"POSITION":0,"NORMAL":1,"TEXCOORD_0":2},"indices":3,"material":0,"mode":4}]}],"nodes":[{"name":"Geo_Goat","mesh":0}],"samplers":[{"magFilter":9729,"minFilter":9986,"wrapS":10497,"wrapT":10497}],"scene":0,"scenes":[{"nodes":[0]}],"textures":[{"name":"Tex_Goat","sampler":0,"source":0}]}
