{"accessors":[{"name":"Node-Mesh_positions","componentType":5126,"count":20706,"min":[-1.455476999282837,-0.4199922978878021,-1.3184449672698975],"max":[1.3255889415740967,0.4766596853733063,1.5249110460281372],"type":"VEC3","bufferView":0,"byteOffset":0},{"name":"Node-Mesh_normals","componentType":5126,"count":20706,"min":[-0.9998971819877625,-0.9996790885925293,-0.9998971223831177],"max":[0.9995030760765076,0.8874719738960266,0.9998974204063416],"type":"VEC3","bufferView":0,"byteOffset":248472},{"name":"Node-Mesh_0_indices","componentType":5123,"count":13380,"min":[0],"max":[10799],"type":"SCALAR","bufferView":1,"byteOffset":0},{"name":"Node-Mesh_1_indices","componentType":5123,"count":12240,"min":[10800],"max":[20705],"type":"SCALAR","bufferView":1,"byteOffset":26760}],"asset":{"generator":"obj2gltf","version":"2.0"},"buffers":[{"name":"model","byteLength":548184,"uri":"data:application/octet-stream;base64,"}],"bufferViews":[{"name":"bufferView_0","buffer":0,"byteLength":496944,"byteOffset":0,"byteStride":12,"target":34962},{"name":"bufferView_1","buffer":0,"byteLength":51240,"byteOffset":496944,"target":34963}],"materials":[{"name":"mat9","pbrMetallicRoughness":{"baseColorFactor":[0.55,0.76,0.29,1],"metallicFactor":0,"roughnessFactor":1},"emissiveFactor":[0,0,0],"alphaMode":"OPAQUE","doubleSided":false},{"name":"mat10","pbrMetallicRoughness":{"baseColorFactor":[0.3,0.69,0.31,1],"metallicFactor":0,"roughnessFactor":1},"emissiveFactor":[0,0,0],"alphaMode":"OPAQUE","doubleSided":false}],"meshes":[{"name":"Node-Mesh","primitives":[{"attributes":{"POSITION":0,"NORMAL":1},"indices":2,"material":0,"mode":4},{"attributes":{"POSITION":0,"NORMAL":1},"indices":3,"material":1,"mode":4}]}],"nodes":[{"name":"Node","mesh":0}],"scene":0,"scenes":[{"nodes":[0]}]}
