{"accessors":[{"name":"Cube_Cube.032-Mesh_positions","componentType":5126,"count":212,"min":[-140.1354217529297,0.5347319841384888,-102.24475860595703],"max":[100.16606903076172,200.0509033203125,113.69452667236328],"type":"VEC3","bufferView":0,"byteOffset":0},{"name":"Cube_Cube.032-Mesh_normals","componentType":5126,"count":212,"min":[-0.9902999997138977,-0.9757000207901001,-0.9800999760627747],"max":[0.993399977684021,0.9757999777793884,0.8937000036239624],"type":"VEC3","bufferView":0,"byteOffset":2544},{"name":"Cube_Cube.032-Mesh_0_indices","componentType":5123,"count":264,"min":[0],"max":[173],"type":"SCALAR","bufferView":1,"byteOffset":0},{"name":"Cube_Cube.032-Mesh_1_indices","componentType":5123,"count":60,"min":[174],"max":[211],"type":"SCALAR","bufferView":1,"byteOffset":528}],"asset":{"generator":"obj2gltf","version":"2.0"},"buffers":[{"name":"rock_02","byteLength":5736,"uri":"data:application/octet-stream;base64,"}],"bufferViews":[{"name":"bufferView_0","buffer":0,"byteLength":5088,"byteOffset":0,"byteStride":12,"target":34962},{"name":"bufferView_1","buffer":0,"byteLength":648,"byteOffset":5088,"target":34963}],"materials":[{"name":"455A64","pbrMetallicRoughness":{"baseColorFactor":[0.270588,0.352941,0.392157,1],"metallicFactor":0,"roughnessFactor":0.903921569},"emissiveFactor":[0,0,0],"alphaMode":"OPAQUE","doubleSided":false},{"name":"78909C","pbrMetallicRoughness":{"baseColorFactor":[0.470588,0.564706,0.611765,1],"metallicFactor":0,"roughnessFactor":0.903921569},"emissiveFactor":[0,0,0],"alphaMode":"OPAQUE","doubleSided":false}],"meshes":[{"name":"Cube_Cube.032-Mesh","primitives":[{"attributes":{"POSITION":0,"NORMAL":1},"indices":2,"material":0,"mode":4},{"attributes":{"POSITION":0,"NORMAL":1},"indices":3,"material":1,"mode":4}]}],"nodes":[{"name":"Cube_Cube.032","mesh":0}],"scene":0,"scenes":[{"nodes":[0]}]}
