{"accessors":[{"name":"sheep-Mesh_positions","componentType":5126,"count":1093,"min":[-0.4851349890232086,-0.8173840045928955,-1.106734037399292],"max":[0.48577600717544556,0.7790849804878235,0.7838839888572693],"type":"VEC3","bufferView":0,"byteOffset":0},{"name":"sheep-Mesh_normals","componentType":5126,"count":1093,"min":[-0.9973999857902527,-0.9995999932289124,-0.9889000058174133],"max":[0.9987000226974487,0.9934999942779541,0.9994000196456909],"type":"VEC3","bufferView":0,"byteOffset":13116},{"name":"sheep-Mesh_texcoords","componentType":5126,"count":1093,"min":[0.023900000378489494,0.023900000378489494],"max":[0.9761000275611877,0.9761000275611877],"type":"VEC2","bufferView":1,"byteOffset":0},{"name":"sheep-Mesh_0_indices","componentType":5123,"count":1335,"min":[0],"max":[1092],"type":"SCALAR","bufferView":2,"byteOffset":0}],"asset":{"generator":"obj2gltf","version":"2.0"},"buffers":[{"name":"PUSHILIN_sheep","byteLength":256708,"uri":"data:application/octet-stream;base64,"}],"bufferViews":[{"name":"bufferView_0","buffer":0,"byteLength":26232,"byteOffset":0,"byteStride":12,"target":34962},{"name":"bufferView_1","buffer":0,"byteLength":8744,"byteOffset":26232,"byteStride":8,"target":34962},{"name":"bufferView_2","buffer":0,"byteLength":2672,"byteOffset":34976,"target":34963},{"buffer":0,"byteOffset":37648,"byteLength":219058}],"images":[{"name":"PUSHILIN_sheep","mimeType":"image/png","bufferView":3}],"materials":[{"name":"None","pbrMetallicRoughness":{"baseColorTexture":{"index":0},"baseColorFactor":[1,1,1,1],"metallicFactor":0,"roughnessFactor":1},"emissiveFactor":[0,0,0],"alphaMode":"OPAQUE","doubleSided":false}],"meshes":[{"name":"sheep-Mesh","primitives":[{"attributes":{"POSITION":0,"NORMAL":1,"TEXCOORD_0":2},"indices":3,"material":0,"mode":4}]}],"nodes":[{"name":"sheep","mesh":0}],"samplers":[{"magFilter":9729,"minFilter":9986,"wrapS":10497,"wrapT":10497}],"scene":0,"scenes":[{"nodes":[0]}],"textures":[{"name":"PUSHILIN_sheep","sampler":0,"source":0}]}
