{"accessors":[{"name":"tree01_1_positions","componentType":5126,"count":97,"min":[-184.9799346923828,0,-155.37196350097656],"max":[123.4296646118164,509.0864562988281,168.36563110351562],"type":"VEC3","bufferView":0,"byteOffset":0},{"name":"tree01_1_texcoords","componentType":5126,"count":97,"min":[0.1608310043811798,0.15237200260162354],"max":[0.6882799863815308,0.8911370038986206],"type":"VEC2","bufferView":1,"byteOffset":0},{"name":"tree01_1_0_indices","componentType":5123,"count":471,"min":[0],"max":[96],"type":"SCALAR","bufferView":2,"byteOffset":0}],"asset":{"generator":"obj2gltf","version":"2.0"},"buffers":[{"name":"tree01","byteLength":3732,"uri":"data:application/octet-stream;base64,"}],"bufferViews":[{"name":"bufferView_0","buffer":0,"byteLength":1164,"byteOffset":0,"byteStride":12,"target":34962},{"name":"bufferView_1","buffer":0,"byteLength":776,"byteOffset":1164,"byteStride":8,"target":34962},{"name":"bufferView_2","buffer":0,"byteLength":944,"byteOffset":1940,"target":34963},{"buffer":0,"byteOffset":2884,"byteLength":845}],"images":[{"name":"tree_texture","mimeType":"image/png","bufferView":3}],"materials":[{"name":"Mat","pbrMetallicRoughness":{"baseColorTexture":{"index":0},"baseColorFactor":[1,1,1,1],"metallicFactor":0,"roughnessFactor":1},"emissiveFactor":[0,0,0],"alphaMode":"OPAQUE","doubleSided":false}],"meshes":[{"name":"tree01_1","primitives":[{"attributes":{"POSITION":0,"TEXCOORD_0":1},"indices":2,"material":0,"mode":4}]}],"nodes":[{"name":"tree01","mesh":0}],"samplers":[{"magFilter":9729,"minFilter":9986,"wrapS":10497,"wrapT":10497}],"scene":0,"scenes":[{"nodes":[0]}],"textures":[{"name":"tree_texture","sampler":0,"source":0}]}
